<svg xmlns="http://www.w3.org/2000/svg" version="1.1" xmlns:xlink="http://www.w3.org/1999/xlink" xmlns:svgjs="http://svgjs.dev/svgjs" width="1500" height="716" viewBox="0 0 1500 716"><g transform="matrix(1,0,0,1,-1.5061724545416837,0.8254721028270069)"><svg viewBox="0 0 178 85" data-background-color="#ffffff" preserveAspectRatio="xMidYMid meet" height="716" width="1500" xmlns="http://www.w3.org/2000/svg" xmlns:xlink="http://www.w3.org/1999/xlink"><g id="tight-bounds" transform="matrix(1,0,0,1,0.17873246460561631,-0.09799598986074898)"><svg viewBox="0 0 177.64253507078877 85.19599197972153" height="85.19599197972153" width="177.64253507078877"><g><svg viewBox="0 0 177.64253507078877 85.19599197972153" height="85.19599197972153" width="177.64253507078877"><g><svg viewBox="0 0 177.64253507078877 85.19599197972153" height="85.19599197972153" width="177.64253507078877"><g id="textblocktransform"><svg viewBox="0 0 177.64253507078877 85.19599197972153" height="85.19599197972153" width="177.64253507078877" id="textblock"><g><svg viewBox="0 0 177.64253507078877 59.86599999999999" height="59.86599999999999" width="177.64253507078877"><g><svg><g></g><g></g></svg></g><g><svg><g></g><g><svg></svg></g></svg></g><g id="text-0"><svg viewBox="0 0 177.64253507078877 59.86599999999999" height="59.86599999999999" width="177.64253507078877"><g><svg xmlns="http://www.w3.org/2000/svg" xmlns:xlink="http://www.w3.org/1999/xlink" version="1.1" x="0" y="0" viewBox="6.789 6.738 86.42200000000001 86.525" enable-background="new 0 0 100 100" xml:space="preserve" height="59.86599999999999" width="59.79473507078878" class="icon-cg-0" data-fill-palette-color="accent" id="cg-0"><g fill="#febb12" data-fill-palette-color="accent"><path fill="none" d="M70.094 26.971H30.005c-1.813 0-3.288 1.475-3.288 3.287v40.088c0 1.814 1.475 3.288 3.288 3.288h40.088c1.813 0 3.288-1.474 3.288-3.288V30.258C73.382 28.445 71.906 26.971 70.094 26.971zM60.143 55.274c0 2.544-2.063 4.607-4.607 4.607H44.564c-2.544 0-4.607-2.063-4.607-4.607v-9.943c0-2.545 2.063-4.607 4.607-4.607h10.971c2.545 0 4.607 2.063 4.607 4.607V55.274z"></path><path d="M70.094 25.818H30.005c-2.448 0-4.439 1.992-4.439 4.439v40.088c0 2.449 1.991 4.44 4.439 4.44h40.088c2.448 0 4.439-1.991 4.439-4.44V30.258C74.533 27.811 72.542 25.818 70.094 25.818zM73.382 70.346c0 1.814-1.476 3.288-3.288 3.288H30.005c-1.813 0-3.288-1.474-3.288-3.288V30.258c0-1.813 1.475-3.287 3.288-3.287h40.088c1.813 0 3.288 1.475 3.288 3.287V70.346z" fill="#febb12" data-fill-palette-color="accent"></path><path d="M55.535 40.724H44.564c-2.544 0-4.607 2.063-4.607 4.607v9.943c0 2.544 2.063 4.607 4.607 4.607h10.971c2.545 0 4.607-2.063 4.607-4.607v-9.943C60.143 42.786 58.08 40.724 55.535 40.724z" fill="#febb12" data-fill-palette-color="accent"></path><circle cx="42.137" cy="20.9" r="3.0" fill="#febb12" data-fill-palette-color="accent"></circle><circle cx="34.494" cy="20.9" r="3.0" fill="#febb12" data-fill-palette-color="accent"></circle><circle cx="49.869" cy="20.9" r="3.0" fill="#febb12" data-fill-palette-color="accent"></circle><circle cx="57.692" cy="20.9" r="3.0" fill="#febb12" data-fill-palette-color="accent"></circle><polygon points="35.033,10.649 41.688,10.649 41.688,6.738 40.608,6.738 40.608,9.571 33.954,9.571 33.954,17.933 34.494,17.933    35.033,17.933  " fill="#febb12" data-fill-palette-color="accent"></polygon><polygon points="41.598,17.933 42.137,17.933 42.677,17.933 42.677,15.235 46.093,15.235 46.093,6.738 45.015,6.738 45.015,14.156    41.598,14.156  " fill="#febb12" data-fill-palette-color="accent"></polygon><polygon points="50.409,6.738 49.33,6.738 49.33,17.933 49.869,17.933 50.409,17.933  " fill="#febb12" data-fill-palette-color="accent"></polygon><path d="M58.231 13.482h6.834v4.505c-1.38 0.254-2.428 1.459-2.428 2.913 0 1.639 1.329 2.967 2.968 2.967 1.638 0 2.967-1.328 2.967-2.967 0-1.454-1.047-2.659-2.428-2.913V6.738h-1.079v5.665h-7.913v5.529h0.54 0.539V13.482z" fill="#febb12" data-fill-palette-color="accent"></path><circle cx="79.048" cy="42.39" r="3.0" fill="#febb12" data-fill-palette-color="accent"></circle><circle cx="79.048" cy="34.747" r="3.0" fill="#febb12" data-fill-palette-color="accent"></circle><circle cx="79.048" cy="50.123" r="3.0" fill="#febb12" data-fill-palette-color="accent"></circle><circle cx="79.048" cy="57.945" r="3.0" fill="#febb12" data-fill-palette-color="accent"></circle><polygon points="90.379,40.861 90.379,34.207 82.016,34.207 82.016,34.747 82.016,35.286 89.3,35.286 89.3,41.94 93.211,41.94    93.211,40.861  " fill="#febb12" data-fill-palette-color="accent"></polygon><polygon points="85.793,41.851 82.016,41.851 82.016,42.391 82.016,42.93 84.714,42.93 84.714,46.347 93.211,46.347 93.211,45.268    85.793,45.268  " fill="#febb12" data-fill-palette-color="accent"></polygon><polygon points="82.016,50.122 82.016,50.662 93.211,50.662 93.211,49.583 82.016,49.583  " fill="#febb12" data-fill-palette-color="accent"></polygon><path d="M87.546 57.405h-5.53v0.54 0.539h4.451v6.834h-4.505c-0.254-1.38-1.46-2.427-2.914-2.427-1.637 0-2.967 1.328-2.967 2.967s1.33 2.967 2.967 2.967c1.454 0 2.66-1.047 2.914-2.428h11.249v-1.079h-5.665V57.405z" fill="#febb12" data-fill-palette-color="accent"></path><circle cx="57.961" cy="79.1" r="3.0" fill="#febb12" data-fill-palette-color="accent"></circle><circle cx="65.605" cy="79.1" r="3.0" fill="#febb12" data-fill-palette-color="accent"></circle><circle cx="50.23" cy="79.1" r="3.0" fill="#febb12" data-fill-palette-color="accent"></circle><circle cx="42.407" cy="79.1" r="3.0" fill="#febb12" data-fill-palette-color="accent"></circle><path d="M34.494 76.133c-1.638 0-2.967 1.33-2.967 2.967 0 1.511 1.132 2.744 2.591 2.93h-0.54v3.521h-7.896v7.712h1.079v-6.633h7.896v-4.577c1.561-0.087 2.804-1.369 2.804-2.952C37.461 77.463 36.132 76.133 34.494 76.133z" fill="#febb12" data-fill-palette-color="accent"></path><polygon points="65.065,89.351 58.411,89.351 58.411,93.262 59.49,93.262 59.49,90.43 66.145,90.43 66.145,82.067 65.605,82.067    65.065,82.067  " fill="#febb12" data-fill-palette-color="accent"></polygon><polygon points="42.047,84.739 38.63,84.739 38.63,93.152 39.709,93.152 39.709,85.807 43.125,85.807 43.125,82.067 42.407,82.067    42.047,82.067  " fill="#febb12" data-fill-palette-color="accent"></polygon><polygon points="58.501,82.067 57.962,82.067 57.422,82.067 57.422,85.19 50.77,85.19 50.77,82.067 50.229,82.067 49.69,82.067    49.69,93.262 50.77,93.262 50.77,86.27 58.501,86.27  " fill="#febb12" data-fill-palette-color="accent"></polygon><circle cx="20.951" cy="58.716" r="3.0" fill="#febb12" data-fill-palette-color="accent"></circle><path d="M20.951 63.393c-1.583 0-2.864 1.242-2.951 2.804H6.899v1.079h11.122v-0.539c0.187 1.458 1.419 2.591 2.929 2.591 1.639 0 2.967-1.329 2.967-2.967C23.918 64.722 22.589 63.393 20.951 63.393z" fill="#febb12" data-fill-palette-color="accent"></path><circle cx="20.951" cy="50.984" r="3.0" fill="#febb12" data-fill-palette-color="accent"></circle><polygon points="10.7,50.715 10.7,44.061 6.789,44.061 6.789,45.14 9.622,45.14 9.622,51.793 17.983,51.793 17.983,50.984    17.983,50.715  " fill="#febb12" data-fill-palette-color="accent"></polygon><path d="M18.021 35.967v-0.343c0.187 1.459 1.419 2.592 2.929 2.592 1.639 0 2.967-1.329 2.967-2.968s-1.329-2.967-2.967-2.967c-1.515 0-2.75 1.14-2.931 2.606h-4.598v7.896H6.789v1.078h6.935v0.034h4.362c0.328 1.282 1.481 2.233 2.864 2.233 1.639 0 2.967-1.329 2.967-2.968 0-1.638-1.329-2.967-2.967-2.967-1.521 0-2.76 1.148-2.933 2.623h-3.517v-6.851H18.021z" fill="#febb12" data-fill-palette-color="accent"></path><polygon points="9.048,58.177 9.048,64.741 6.899,64.741 6.899,65.82 10.127,65.82 10.127,59.256 17.983,59.256 17.983,58.717    17.983,58.177  " fill="#febb12" data-fill-palette-color="accent"></polygon></g></svg></g><g transform="matrix(1,0,0,1,73.92873507078878,0)"><svg width="103.71379999999998" viewBox="-0.5 -37 64.1 37" height="59.86599999999999" data-palette-color="#febb12"><path d="M19.95-37L30.4-37 30.4-35.75Q28.95-36.2 28.1-36.2L28.1-36.2Q26.6-36.2 25.95-35L25.95-35Q25.6-34.3 25.35-33.55L25.35-33.55 17.45-2.35 17.45-2.3 16.85 0 13.9 0 4.1-34Q3.85-35 3.13-35.52 2.4-36.05 1.3-36.05L1.3-36.05Q0.45-36.05-0.5-35.75L-0.5-35.75-0.5-37 11.55-37 11.55-35.75Q10.6-36.05 9.8-36.05L9.8-36.05Q9-36.05 8.55-35.7 8.1-35.35 8.1-34.7L8.1-34.7Q8.1-34.25 8.2-34L8.2-34 16.85-4.3 23.6-32.75 23.95-34Q24.05-34.3 24.05-34.75L24.05-34.75Q24.05-36.2 22.25-36.2L22.25-36.2Q21.25-36.2 19.95-35.75L19.95-35.75 19.95-37ZM59-3Q59.7-1.9 60.32-1.4 60.95-0.9 61.85-0.9L61.85-0.9Q62.6-0.9 63.6-1.25L63.6-1.25 63.6 0 51.55 0 51.55-1.25Q52.55-0.95 53.3-0.95L53.3-0.95Q54.15-0.95 54.67-1.28 55.2-1.6 55.2-2.15L55.2-2.15Q55.2-2.55 54.9-3L54.9-3 43.5-21.45 38.9-16.45 38.9-3Q38.9-2 39.42-1.48 39.95-0.95 40.9-0.95L40.9-0.95Q41.7-0.95 42.65-1.25L42.65-1.25 42.65 0 31.4 0 31.4-1.25Q32.35-0.95 33.15-0.95L33.15-0.95Q34.1-0.95 34.62-1.48 35.15-2 35.15-3L35.15-3 35.15-34Q35.15-35 34.62-35.52 34.1-36.05 33.15-36.05L33.15-36.05Q32.35-36.05 31.4-35.75L31.4-35.75 31.4-37 42.65-37 42.65-35.75Q41.7-36.05 40.9-36.05L40.9-36.05Q39.95-36.05 39.42-35.52 38.9-35 38.9-34L38.9-34 38.9-17.85 53.2-34Q53.65-34.55 53.65-34.95L53.65-34.95Q53.65-35.45 53.25-35.75 52.85-36.05 52.15-36.05L52.15-36.05Q51.5-36.05 50.7-35.75L50.7-35.75 50.7-37 60.75-37 60.75-35.75Q59.9-36 59.25-36L59.25-36Q58.2-36 57.15-35.52 56.1-35.05 55.25-34.2L55.25-34.2 46.15-24.35 59-3Z" opacity="1" transform="matrix(1,0,0,1,0,0)" fill="#febb12" class="wordmark-text-0" data-fill-palette-color="primary"></path></svg></g></svg></g></svg></g><g transform="matrix(1,0,0,1,33.92972419852065,73.998925816)"><svg viewBox="0 0 109.78308667374746 11.197066163721528" height="11.197066163721528" width="109.78308667374746"><g transform="matrix(1,0,0,1,0,0)"><svg width="109.78308667374746" viewBox="2.25 -41.5 529.4 54" height="11.197066163721528" data-palette-color="#febb12"><path d="M13-18.15L13-7.95Q13-6.05 13.23-4.88 13.45-3.7 14.2-3.08 14.95-2.45 16.32-2.2 17.7-1.95 19.95-1.9L19.95-1.9 19.95 0 2.25 0 2.25-1.9Q4-1.95 5.08-2.2 6.15-2.45 6.75-3.05 7.35-3.65 7.55-4.75 7.75-5.85 7.75-7.6L7.75-7.6 7.75-30.9Q7.75-32.65 7.58-33.73 7.4-34.8 6.88-35.43 6.35-36.05 5.35-36.27 4.35-36.5 2.75-36.6L2.75-36.6 2.75-38.5 31.65-38.5 32.2-28.95 30.45-28.95Q30.15-31.1 29.5-32.48 28.85-33.85 27.68-34.65 26.5-35.45 24.7-35.77 22.9-36.1 20.2-36.1L20.2-36.1 13.85-36.1Q13-36.1 13-35.25L13-35.25 13-20.15Q15.4-20.15 17.13-20.43 18.85-20.7 19.98-21.4 21.1-22.1 21.7-23.3 22.3-24.5 22.45-26.4L22.45-26.4 24.2-26.4 24.2-11.75 22.45-11.75Q22.2-13.65 21.65-14.9 21.1-16.15 20.03-16.85 18.95-17.55 17.25-17.85 15.55-18.15 13-18.15L13-18.15ZM44.15-9.65L44.15-7.95Q44.15-5.9 44.25-4.7 44.35-3.5 44.77-2.88 45.2-2.25 46-2.05 46.8-1.85 48.25-1.75L48.25-1.75 48.25 0 34.95 0 34.95-1.75Q36.4-1.8 37.25-2.02 38.1-2.25 38.55-2.85 39-3.45 39.12-4.58 39.25-5.7 39.25-7.6L39.25-7.6 39.25-13.45Q39.25-16.85 39.17-18.75 39.1-20.65 38.67-21.55 38.25-22.45 37.35-22.63 36.45-22.8 34.85-22.8L34.85-22.8 34.85-24.55 43.6-26.45 44.3-20.25 44.5-20.25Q45.15-21.75 46.12-23 47.1-24.25 48.25-25.13 49.4-26 50.65-26.5 51.9-27 53.2-27L53.2-27Q54.8-27 55.72-26.23 56.65-25.45 56.65-24.15L56.65-24.15Q56.65-22.95 55.9-22.28 55.15-21.6 53.75-21.6L53.75-21.6Q52.95-21.6 52.4-21.8 51.85-22 51.42-22.23 51-22.45 50.62-22.65 50.25-22.85 49.8-22.85L49.8-22.85Q48.45-22.85 47.1-21.13 45.75-19.4 45-16.75L45-16.75Q44.6-15.3 44.37-13.48 44.15-11.65 44.15-9.65L44.15-9.65ZM72.59-27L72.59-27Q75.45-27 78-25.98 80.55-24.95 82.47-23.15 84.4-21.35 85.52-18.88 86.65-16.4 86.65-13.45L86.65-13.45Q86.65-10.4 85.52-7.85 84.4-5.3 82.47-3.45 80.55-1.6 78-0.55 75.45 0.5 72.59 0.5L72.59 0.5Q69.8 0.5 67.27-0.53 64.75-1.55 62.85-3.4 60.95-5.25 59.85-7.83 58.75-10.4 58.75-13.45L58.75-13.45Q58.75-16.4 59.85-18.9 60.95-21.4 62.85-23.2 64.75-25 67.27-26 69.8-27 72.59-27ZM72.59-24.6L72.59-24.6Q70.75-24.6 69.22-23.8 67.7-23 66.62-21.53 65.55-20.05 64.97-17.98 64.4-15.9 64.4-13.4L64.4-13.4Q64.4-10.8 64.97-8.7 65.55-6.6 66.62-5.13 67.7-3.65 69.2-2.85 70.7-2.05 72.59-2.05L72.59-2.05Q74.5-2.05 76.05-2.85 77.59-3.65 78.7-5.15 79.8-6.65 80.4-8.75 81-10.85 81-13.4L81-13.4Q81-15.9 80.4-17.95 79.8-20 78.7-21.48 77.59-22.95 76.05-23.78 74.5-24.6 72.59-24.6ZM99.84-14.55L99.84-7.85Q99.84-5.8 99.94-4.63 100.04-3.45 100.47-2.83 100.89-2.2 101.72-2 102.54-1.8 103.99-1.7L103.99-1.7 103.99 0 90.89 0 90.89-1.7Q92.29-1.8 93.12-2 93.94-2.2 94.39-2.8 94.84-3.4 94.97-4.5 95.09-5.6 95.09-7.5L95.09-7.5 95.09-14.15Q95.09-20.1 94.79-21.4L94.79-21.4Q94.64-22.05 94.42-22.48 94.19-22.9 93.74-23.13 93.29-23.35 92.59-23.43 91.89-23.5 90.79-23.5L90.79-23.5 90.79-25.1 98.79-27 99.39-22.05 99.59-22.05Q101.49-24.4 104.04-25.7 106.59-27 109.59-27L109.59-27Q111.89-27 113.79-26.25 115.69-25.5 116.69-24.2L116.69-24.2Q117.54-23.05 117.89-21.23 118.24-19.4 118.24-16.2L118.24-16.2 118.24-7.85Q118.24-5.8 118.37-4.63 118.49-3.45 118.89-2.83 119.29-2.2 120.12-2 120.94-1.8 122.29-1.7L122.29-1.7 122.29 0 109.34 0 109.34-1.7Q110.74-1.75 111.57-1.98 112.39-2.2 112.82-2.8 113.24-3.4 113.37-4.53 113.49-5.65 113.49-7.5L113.49-7.5 113.49-14.1Q113.49-16.95 113.19-18.9 112.89-20.85 112.22-22.05 111.54-23.25 110.44-23.78 109.34-24.3 107.79-24.3L107.79-24.3Q105.54-24.3 103.67-23.13 101.79-21.95 100.74-19.9L100.74-19.9Q100.49-19.4 100.32-18.95 100.14-18.5 100.04-17.9 99.94-17.3 99.89-16.53 99.84-15.75 99.84-14.55L99.84-14.55ZM128.49-23.35L125.49-23.35 125.49-25.2Q128.14-26.75 129.64-28.3 131.14-29.85 131.94-32L131.94-32 133.39-32 133.39-25.7 140.09-25.7 140.09-23.35 133.39-23.35 133.39-8.15Q133.39-6.4 133.57-5.2 133.74-4 134.14-3.28 134.54-2.55 135.19-2.25 135.84-1.95 136.84-1.95L136.84-1.95Q138.09-1.95 138.97-2.48 139.84-3 140.69-4.25L140.69-4.25 141.94-3.3Q141.24-1.45 139.52-0.48 137.79 0.5 135.24 0.5L135.24 0.5Q131.94 0.5 130.22-1.07 128.49-2.65 128.49-5.6L128.49-5.6 128.49-23.35ZM161.69-12.4L146.24-12.4 146.24-16.55 161.69-16.55 161.69-12.4ZM190.09-6.05L191.64-4.65Q187.39 0.5 181.09 0.5L181.09 0.5Q178.14 0.5 175.74-0.48 173.34-1.45 171.61-3.23 169.89-5 168.94-7.48 167.99-9.95 167.99-12.95L167.99-12.95Q167.99-16 168.99-18.6 169.99-21.2 171.81-23.05 173.64-24.9 176.16-25.95 178.69-27 181.69-27L181.69-27Q186.54-27 189.19-24.38 191.84-21.75 191.84-16.85L191.84-16.85Q191.84-16.15 191.56-16 191.29-15.85 190.29-15.85L190.29-15.85 173.84-15.85Q173.74-15.45 173.69-14.88 173.64-14.3 173.64-13.6L173.64-13.6Q173.64-11 174.26-8.88 174.89-6.75 176.06-5.25 177.24-3.75 178.86-2.93 180.49-2.1 182.49-2.1L182.49-2.1Q184.59-2.1 186.39-3.03 188.19-3.95 190.09-6.05L190.09-6.05ZM174.19-18.15L183.39-18.15Q184.39-18.15 184.99-18.2 185.59-18.25 185.89-18.4 186.19-18.55 186.29-18.82 186.39-19.1 186.39-19.55L186.39-19.55Q186.39-21.85 184.91-23.23 183.44-24.6 180.89-24.6L180.89-24.6Q175.49-24.6 174.19-18.15L174.19-18.15ZM204.98-14.55L204.98-7.85Q204.98-5.8 205.08-4.63 205.18-3.45 205.61-2.83 206.03-2.2 206.86-2 207.68-1.8 209.13-1.7L209.13-1.7 209.13 0 196.03 0 196.03-1.7Q197.43-1.8 198.26-2 199.08-2.2 199.53-2.8 199.98-3.4 200.11-4.5 200.23-5.6 200.23-7.5L200.23-7.5 200.23-14.15Q200.23-20.1 199.93-21.4L199.93-21.4Q199.78-22.05 199.56-22.48 199.33-22.9 198.88-23.13 198.43-23.35 197.73-23.43 197.03-23.5 195.93-23.5L195.93-23.5 195.93-25.1 203.93-27 204.53-22.05 204.73-22.05Q206.63-24.4 209.18-25.7 211.73-27 214.73-27L214.73-27Q217.03-27 218.93-26.25 220.83-25.5 221.83-24.2L221.83-24.2Q222.68-23.05 223.03-21.23 223.38-19.4 223.38-16.2L223.38-16.2 223.38-7.85Q223.38-5.8 223.51-4.63 223.63-3.45 224.03-2.83 224.43-2.2 225.26-2 226.08-1.8 227.43-1.7L227.43-1.7 227.43 0 214.48 0 214.48-1.7Q215.88-1.75 216.71-1.98 217.53-2.2 217.96-2.8 218.38-3.4 218.51-4.53 218.63-5.65 218.63-7.5L218.63-7.5 218.63-14.1Q218.63-16.95 218.33-18.9 218.03-20.85 217.36-22.05 216.68-23.25 215.58-23.78 214.48-24.3 212.93-24.3L212.93-24.3Q210.68-24.3 208.81-23.13 206.93-21.95 205.88-19.9L205.88-19.9Q205.63-19.4 205.46-18.95 205.28-18.5 205.18-17.9 205.08-17.3 205.03-16.53 204.98-15.75 204.98-14.55L204.98-14.55ZM252.83 0.5L252.83-4.2 252.63-4.2Q250.83-1.65 248.81-0.58 246.78 0.5 244.03 0.5L244.03 0.5Q241.18 0.5 238.81-0.53 236.43-1.55 234.71-3.38 232.98-5.2 232.01-7.75 231.03-10.3 231.03-13.3L231.03-13.3Q231.03-16.25 232.01-18.78 232.98-21.3 234.71-23.13 236.43-24.95 238.83-25.98 241.23-27 244.03-27L244.03-27Q246.43-27 248.31-26.2 250.18-25.4 251.93-23.65L251.93-23.65 251.93-28.75Q251.93-31.6 251.86-33.5 251.78-35.4 251.63-36.1L251.63-36.1Q251.38-37.2 250.23-37.65 249.08-38.1 246.48-38.1L246.48-38.1 246.48-39.6 256.73-41.5 256.73-12.65Q256.73-9.2 256.78-6.98 256.83-4.75 257.08-3.8L257.08-3.8Q257.23-3.2 257.46-2.8 257.68-2.4 258.11-2.18 258.53-1.95 259.26-1.85 259.98-1.75 261.13-1.75L261.13-1.75 261.13-0.05 252.83 0.5ZM251.83-11.95L251.83-15.25Q251.83-17.85 251.56-19.2 251.28-20.55 250.48-21.55L250.48-21.55Q249.33-23.05 247.56-23.83 245.78-24.6 244.03-24.6L244.03-24.6Q240.43-24.6 238.56-21.63 236.68-18.65 236.68-13.55L236.68-13.55Q236.68-10.9 237.16-8.75 237.63-6.6 238.56-5.08 239.48-3.55 240.86-2.73 242.23-1.9 244.03-1.9L244.03-1.9Q244.93-1.9 245.86-2.1 246.78-2.3 247.66-2.73 248.53-3.15 249.28-3.73 250.03-4.3 250.53-5.05L250.53-5.05Q251.23-6.15 251.53-7.7 251.83-9.25 251.83-11.95L251.83-11.95ZM300.93 0.5L300.93-4.2 300.73-4.2Q298.93-1.65 296.9-0.58 294.88 0.5 292.13 0.5L292.13 0.5Q289.28 0.5 286.9-0.53 284.53-1.55 282.8-3.38 281.08-5.2 280.1-7.75 279.13-10.3 279.13-13.3L279.13-13.3Q279.13-16.25 280.1-18.78 281.08-21.3 282.8-23.13 284.53-24.95 286.93-25.98 289.33-27 292.13-27L292.13-27Q294.53-27 296.4-26.2 298.28-25.4 300.03-23.65L300.03-23.65 300.03-28.75Q300.03-31.6 299.95-33.5 299.88-35.4 299.73-36.1L299.73-36.1Q299.48-37.2 298.33-37.65 297.18-38.1 294.58-38.1L294.58-38.1 294.58-39.6 304.83-41.5 304.83-12.65Q304.83-9.2 304.88-6.98 304.93-4.75 305.18-3.8L305.18-3.8Q305.33-3.2 305.55-2.8 305.78-2.4 306.2-2.18 306.63-1.95 307.35-1.85 308.08-1.75 309.23-1.75L309.23-1.75 309.23-0.05 300.93 0.5ZM299.93-11.95L299.93-15.25Q299.93-17.85 299.65-19.2 299.38-20.55 298.58-21.55L298.58-21.55Q297.43-23.05 295.65-23.83 293.88-24.6 292.13-24.6L292.13-24.6Q288.53-24.6 286.65-21.63 284.78-18.65 284.78-13.55L284.78-13.55Q284.78-10.9 285.25-8.75 285.73-6.6 286.65-5.08 287.58-3.55 288.95-2.73 290.33-1.9 292.13-1.9L292.13-1.9Q293.03-1.9 293.95-2.1 294.88-2.3 295.75-2.73 296.63-3.15 297.38-3.73 298.13-4.3 298.63-5.05L298.63-5.05Q299.33-6.15 299.63-7.7 299.93-9.25 299.93-11.95L299.93-11.95ZM335.02-6.05L336.57-4.65Q332.32 0.5 326.02 0.5L326.02 0.5Q323.07 0.5 320.67-0.48 318.27-1.45 316.55-3.23 314.82-5 313.87-7.48 312.92-9.95 312.92-12.95L312.92-12.95Q312.92-16 313.92-18.6 314.92-21.2 316.75-23.05 318.57-24.9 321.1-25.95 323.62-27 326.62-27L326.62-27Q331.47-27 334.12-24.38 336.77-21.75 336.77-16.85L336.77-16.85Q336.77-16.15 336.5-16 336.22-15.85 335.22-15.85L335.22-15.85 318.77-15.85Q318.67-15.45 318.62-14.88 318.57-14.3 318.57-13.6L318.57-13.6Q318.57-11 319.2-8.88 319.82-6.75 321-5.25 322.17-3.75 323.8-2.93 325.42-2.1 327.42-2.1L327.42-2.1Q329.52-2.1 331.32-3.03 333.12-3.95 335.02-6.05L335.02-6.05ZM319.12-18.15L328.32-18.15Q329.32-18.15 329.92-18.2 330.52-18.25 330.82-18.4 331.12-18.55 331.22-18.82 331.32-19.1 331.32-19.55L331.32-19.55Q331.32-21.85 329.85-23.23 328.37-24.6 325.82-24.6L325.82-24.6Q320.42-24.6 319.12-18.15L319.12-18.15ZM352.12 0.55L343.67-20.3Q343.07-21.8 342.6-22.68 342.12-23.55 341.57-24 341.02-24.45 340.35-24.58 339.67-24.7 338.72-24.75L338.72-24.75 338.72-26.5 351.97-26.5 351.97-24.75Q350.97-24.7 350.32-24.65 349.67-24.6 349.3-24.43 348.92-24.25 348.77-23.93 348.62-23.6 348.62-23L348.62-23Q348.62-22.15 348.85-21.4 349.07-20.65 349.32-19.9L349.32-19.9 354.62-5.4 354.82-5.4 359.37-16.15Q360.42-18.65 360.87-20.15 361.32-21.65 361.32-22.8L361.32-22.8Q361.32-23.95 360.72-24.35 360.12-24.75 358.12-24.75L358.12-24.75 358.12-26.5 368.07-26.5 368.07-24.75Q367.27-24.75 366.62-24.35 365.97-23.95 365.47-23.35L365.47-23.35Q365.07-22.8 364.65-21.88 364.22-20.95 363.8-19.95 363.37-18.95 363.02-17.98 362.67-17 362.37-16.4L362.37-16.4 355.02 0.55 352.12 0.55ZM392.42-6.05L393.97-4.65Q389.72 0.5 383.42 0.5L383.42 0.5Q380.47 0.5 378.07-0.48 375.67-1.45 373.94-3.23 372.22-5 371.27-7.48 370.32-9.95 370.32-12.95L370.32-12.95Q370.32-16 371.32-18.6 372.32-21.2 374.14-23.05 375.97-24.9 378.49-25.95 381.02-27 384.02-27L384.02-27Q388.87-27 391.52-24.38 394.17-21.75 394.17-16.85L394.17-16.85Q394.17-16.15 393.89-16 393.62-15.85 392.62-15.85L392.62-15.85 376.17-15.85Q376.07-15.45 376.02-14.88 375.97-14.3 375.97-13.6L375.97-13.6Q375.97-11 376.59-8.88 377.22-6.75 378.39-5.25 379.57-3.75 381.19-2.93 382.82-2.1 384.82-2.1L384.82-2.1Q386.92-2.1 388.72-3.03 390.52-3.95 392.42-6.05L392.42-6.05ZM376.52-18.15L385.72-18.15Q386.72-18.15 387.32-18.2 387.92-18.25 388.22-18.4 388.52-18.55 388.62-18.82 388.72-19.1 388.72-19.55L388.72-19.55Q388.72-21.85 387.24-23.23 385.77-24.6 383.22-24.6L383.22-24.6Q377.82-24.6 376.52-18.15L376.52-18.15ZM406.97-41.5L406.97-7.8Q406.97-5.9 407.12-4.75 407.27-3.6 407.74-2.95 408.22-2.3 409.09-2.05 409.97-1.8 411.42-1.75L411.42-1.75 411.42 0 397.62 0 397.62-1.75Q399.12-1.8 400.02-2.08 400.92-2.35 401.44-2.95 401.97-3.55 402.14-4.63 402.32-5.7 402.32-7.45L402.32-7.45 402.32-29Q402.32-31.7 402.24-33.52 402.17-35.35 402.02-36L402.02-36Q401.77-37.15 400.84-37.55 399.92-37.95 397.52-37.95L397.52-37.95 397.52-39.65 406.97-41.5ZM429.01-27L429.01-27Q431.86-27 434.41-25.98 436.96-24.95 438.89-23.15 440.81-21.35 441.94-18.88 443.06-16.4 443.06-13.45L443.06-13.45Q443.06-10.4 441.94-7.85 440.81-5.3 438.89-3.45 436.96-1.6 434.41-0.55 431.86 0.5 429.01 0.5L429.01 0.5Q426.21 0.5 423.69-0.53 421.16-1.55 419.26-3.4 417.36-5.25 416.26-7.83 415.16-10.4 415.16-13.45L415.16-13.45Q415.16-16.4 416.26-18.9 417.36-21.4 419.26-23.2 421.16-25 423.69-26 426.21-27 429.01-27ZM429.01-24.6L429.01-24.6Q427.16-24.6 425.64-23.8 424.11-23 423.04-21.53 421.96-20.05 421.39-17.98 420.81-15.9 420.81-13.4L420.81-13.4Q420.81-10.8 421.39-8.7 421.96-6.6 423.04-5.13 424.11-3.65 425.61-2.85 427.11-2.05 429.01-2.05L429.01-2.05Q430.91-2.05 432.46-2.85 434.01-3.65 435.11-5.15 436.21-6.65 436.81-8.75 437.41-10.85 437.41-13.4L437.41-13.4Q437.41-15.9 436.81-17.95 436.21-20 435.11-21.48 434.01-22.95 432.46-23.78 430.91-24.6 429.01-24.6ZM455.96-26.8L455.96-22.9 456.16-22.9Q457.76-24.8 459.61-25.9 461.46-27 463.91-27L463.91-27Q466.76-27 469.14-25.98 471.51-24.95 473.26-23.1 475.01-21.25 475.99-18.73 476.96-16.2 476.96-13.2L476.96-13.2Q476.96-10.15 475.96-7.63 474.96-5.1 473.21-3.3 471.46-1.5 469.06-0.5 466.66 0.5 463.86 0.5L463.86 0.5Q461.56 0.5 459.69-0.28 457.81-1.05 456.16-2.8L456.16-2.8 456.16 4.5Q456.16 6.5 456.36 7.7 456.56 8.9 457.16 9.55 457.76 10.2 458.89 10.45 460.01 10.7 461.86 10.75L461.86 10.75 461.86 12.5 446.46 12.5 446.46 10.75Q447.96 10.7 448.89 10.45 449.81 10.2 450.34 9.55 450.86 8.9 451.06 7.78 451.26 6.65 451.26 4.85L451.26 4.85 451.26-13.85Q451.26-16.75 451.19-18.6 451.11-20.45 450.91-21.15L450.91-21.15Q450.66-22.35 449.76-22.78 448.86-23.2 446.36-23.2L446.36-23.2 446.36-24.9 455.96-26.8ZM457.46-21.45L457.46-21.45Q456.81-20.45 456.49-19.07 456.16-17.7 456.16-15.5L456.16-15.5 456.16-11.6Q456.16-10.25 456.24-9.28 456.31-8.3 456.46-7.6 456.61-6.9 456.86-6.35 457.11-5.8 457.51-5.3L457.51-5.3Q458.66-3.7 460.26-2.83 461.86-1.95 463.61-1.95L463.61-1.95Q467.06-1.95 469.19-4.85 471.31-7.75 471.31-13L471.31-13Q471.31-15.6 470.74-17.73 470.16-19.85 469.11-21.38 468.06-22.9 466.59-23.75 465.11-24.6 463.31-24.6L463.31-24.6Q461.51-24.6 459.99-23.78 458.46-22.95 457.46-21.45ZM503.96-6.05L505.51-4.65Q501.26 0.5 494.96 0.5L494.96 0.5Q492.01 0.5 489.61-0.48 487.21-1.45 485.48-3.23 483.76-5 482.81-7.48 481.86-9.95 481.86-12.95L481.86-12.95Q481.86-16 482.86-18.6 483.86-21.2 485.68-23.05 487.51-24.9 490.03-25.95 492.56-27 495.56-27L495.56-27Q500.41-27 503.06-24.38 505.71-21.75 505.71-16.85L505.71-16.85Q505.71-16.15 505.43-16 505.16-15.85 504.16-15.85L504.16-15.85 487.71-15.85Q487.61-15.45 487.56-14.88 487.51-14.3 487.51-13.6L487.51-13.6Q487.51-11 488.13-8.88 488.76-6.75 489.93-5.25 491.11-3.75 492.73-2.93 494.36-2.1 496.36-2.1L496.36-2.1Q498.46-2.1 500.26-3.03 502.06-3.95 503.96-6.05L503.96-6.05ZM488.06-18.15L497.26-18.15Q498.26-18.15 498.86-18.2 499.46-18.25 499.76-18.4 500.06-18.55 500.16-18.82 500.26-19.1 500.26-19.55L500.26-19.55Q500.26-21.85 498.78-23.23 497.31-24.6 494.76-24.6L494.76-24.6Q489.36-24.6 488.06-18.15L488.06-18.15ZM519.15-9.65L519.15-7.95Q519.15-5.9 519.25-4.7 519.36-3.5 519.78-2.88 520.21-2.25 521-2.05 521.81-1.85 523.25-1.75L523.25-1.75 523.25 0 509.95 0 509.95-1.75Q511.41-1.8 512.25-2.02 513.11-2.25 513.56-2.85 514-3.45 514.13-4.58 514.25-5.7 514.25-7.6L514.25-7.6 514.25-13.45Q514.25-16.85 514.18-18.75 514.11-20.65 513.68-21.55 513.25-22.45 512.36-22.63 511.45-22.8 509.86-22.8L509.86-22.8 509.86-24.55 518.61-26.45 519.31-20.25 519.5-20.25Q520.15-21.75 521.13-23 522.11-24.25 523.25-25.13 524.4-26 525.65-26.5 526.9-27 528.21-27L528.21-27Q529.81-27 530.73-26.23 531.65-25.45 531.65-24.15L531.65-24.15Q531.65-22.95 530.9-22.28 530.15-21.6 528.75-21.6L528.75-21.6Q527.96-21.6 527.4-21.8 526.86-22 526.43-22.23 526-22.45 525.63-22.65 525.25-22.85 524.81-22.85L524.81-22.85Q523.46-22.85 522.11-21.13 520.75-19.4 520-16.75L520-16.75Q519.61-15.3 519.38-13.48 519.15-11.65 519.15-9.65L519.15-9.65Z" opacity="1" transform="matrix(1,0,0,1,0,0)" fill="#febb12" class="slogan-text-1" data-fill-palette-color="secondary" id="text-1"></path></svg></g></svg></g></svg></g></svg></g></svg></g><defs></defs></svg><rect width="177.64253507078877" height="85.19599197972153" fill="none" stroke="none" visibility="hidden"></rect></g></svg></g></svg>