<svg xmlns="http://www.w3.org/2000/svg" version="1.1" xmlns:xlink="http://www.w3.org/1999/xlink" xmlns:svgjs="http://svgjs.dev/svgjs" width="2000" height="1929" viewBox="0 0 2000 1929"><g transform="matrix(1,0,0,1,1.674097502421887,0.7809716599190324)"><svg viewBox="0 0 256 247" data-background-color="#0c0c1d" preserveAspectRatio="xMidYMid meet" height="1929" width="2000" xmlns="http://www.w3.org/2000/svg" xmlns:xlink="http://www.w3.org/1999/xlink"><g id="tight-bounds" transform="matrix(1,0,0,1,-0.21428448030999903,-0.09999999999999432)"><svg viewBox="0 0 256.42856896062 247.2" height="247.2" width="256.42856896062"><g><svg viewBox="0 0 369.0820521282819 355.799214010833" height="247.2" width="256.42856896062"><g><svg viewBox="0 0 369.0820521282819 355.799214010833" height="355.799214010833" width="369.0820521282819"><g id="textblocktransform"><svg viewBox="0 0 369.0820521282819 355.799214010833" height="355.799214010833" width="369.0820521282819" id="textblock"><g><rect width="369.0820521282819" height="22.154981908537728" x="0" y="271.7711046775968" fill="#febb12" opacity="1" stroke-width="0" stroke="transparent" fill-opacity="1" class="rect-qz-0" data-fill-palette-color="primary" rx="1%" id="qz-0" data-palette-color="#febb12"></rect></g><g transform="matrix(1,0,0,1,0.9181145575330163,0)"><svg viewBox="0 0 367.24582301321584 245.672304" height="245.672304" width="367.24582301321584"><g transform="matrix(1,0,0,1,0,0)"><svg width="367.24582301321584" viewBox="3.5 -33.95 50.9 34.050000000000004" height="245.672304" data-palette-color="#febb12"><path d="M3.5 0L3.5-33.85 23.6-33.85 23.6-29.35 9.45-29.35 9.45-19.6 21.1-19.6 20.35-15.1 9.45-15.1 9.45 0 3.5 0ZM27.9 0L27.9-33.85Q28.25-33.85 29.4-33.88 30.55-33.9 32-33.9 33.45-33.9 35-33.93 36.55-33.95 37.7-33.95L37.7-33.95Q46.2-33.95 50.3-29.73 54.4-25.5 54.4-17.15L54.4-17.15Q54.4-8.8 50.2-4.35 46 0.1 37.05 0.1L37.05 0.1Q35.5 0.1 34.02 0.08 32.55 0.05 31.32 0.05 30.1 0.05 29.2 0.03 28.3 0 27.9 0L27.9 0ZM37-29.5Q35.85-29.5 35.07-29.48 34.3-29.45 33.85-29.45L33.85-29.45 33.85-4.4Q34.4-4.35 35.27-4.35 36.15-4.35 37.8-4.35L37.8-4.35Q43.05-4.35 45.5-7.43 47.95-10.5 47.95-16.6L47.95-16.6Q47.95-19.5 47.37-21.88 46.8-24.25 45.47-25.95 44.15-27.65 42.07-28.58 40-29.5 37-29.5L37-29.5Z" opacity="1" transform="matrix(1,0,0,1,0,0)" fill="#febb12" class="wordmark-text-0" data-fill-palette-color="primary" id="text-0"></path></svg></g></svg></g><g transform="matrix(1,0,0,1,0,320.0248872637313)"><svg viewBox="0 0 367.24582301321584 35.774326747101696" height="35.774326747101696" width="367.24582301321584"><g transform="matrix(1,0,0,1,0,0)"><svg width="367.24582301321584" viewBox="2.15 -39 492.70000000000005 48" height="35.774326747101696" data-palette-color="#febb12"><path d="M23.6-24.55L23.6-11.35 21.05-11.35 20.2-16.45 11.85-16.45 11.85-3.35 17.7-2.4 17.7 0 2.15 0 2.15-2.15 6.85-3.35 6.85-32.8 2.15-33.85 2.15-36 30.3-36 30.3-25.3 27.6-25.3 26-33.1 11.85-33.1 11.85-19.45 20.2-19.45 21.05-24.55 23.6-24.55ZM48.65-24.1L48.65-24.1Q48.45-24.25 48.17-24.33 47.9-24.4 47.65-24.4L47.65-24.4Q47.05-24.4 46.35-23.85 45.65-23.3 45-22.38 44.35-21.45 43.8-20.25L43.8-20.25Q43.1-18.55 42.7-16.53 42.3-14.5 42.3-12.35L42.3-12.35 42.3-3 47.7-2.05 47.7 0 33.6 0 33.6-2.05 37.45-3 37.45-24 33.6-24.95 33.6-27 40.8-27 41.9-20.4 42.1-20.4Q43.25-23.8 45.2-25.65 47.15-27.5 49.5-27.5L49.5-27.5Q51.45-27.5 52.75-26.28 54.05-25.05 54.05-23L54.05-23Q54.05-21.5 53.27-20.63 52.5-19.75 51.2-19.75L51.2-19.75Q49.9-19.75 49.15-20.58 48.4-21.4 48.4-22.75L48.4-22.75Q48.4-23.05 48.45-23.33 48.5-23.6 48.65-24.1ZM81.25-13.75L81.25-13.75Q81.25-10.5 80.27-7.58 79.3-4.65 77.55-2.75L77.55-2.75Q76.05-1.1 73.85-0.3 71.65 0.5 68.85 0.5L68.85 0.5Q66.1 0.5 63.95-0.28 61.8-1.05 60.3-2.65L60.3-2.65Q58.6-4.5 57.67-7.23 56.75-9.95 56.75-13.15L56.75-13.15Q56.75-16.4 57.7-19.38 58.65-22.35 60.45-24.25L60.45-24.25Q62.05-25.95 64.17-26.73 66.3-27.5 69.05-27.5L69.05-27.5Q71.8-27.5 74-26.73 76.2-25.95 77.7-24.35L77.7-24.35Q79.45-22.5 80.35-19.73 81.25-16.95 81.25-13.75ZM62.1-13.7L62.1-13.7Q62.1-10.65 62.57-8.43 63.05-6.2 63.9-4.75L63.9-4.75Q64.75-3.5 65.92-2.8 67.1-2.1 69-2.1L69-2.1Q72.45-2.1 74.15-4.45L74.15-4.45Q75.05-5.75 75.47-8.05 75.9-10.35 75.9-13.35L75.9-13.35Q75.9-16.35 75.42-18.6 74.95-20.85 74.1-22.25L74.1-22.25Q73.3-23.55 72.07-24.23 70.85-24.9 68.95-24.9L68.95-24.9Q65.45-24.9 63.9-22.6L63.9-22.6Q62.1-19.8 62.1-13.7ZM85.34-2.05L89.19-3 89.19-24 85.34-24.95 85.34-27 92.54-27 93.64-22 93.84-22Q95.34-24.55 97.89-26.03 100.44-27.5 103.34-27.5L103.34-27.5Q107.49-27.5 109.49-24.8L109.49-24.8Q110.49-23.4 110.92-20.88 111.34-18.35 111.34-14.05L111.34-14.05 111.34-3 115.19-2.05 115.19 0 103.14 0 103.14-2.05 106.49-3 106.49-14.15Q106.49-17.4 106.32-19 106.14-20.6 105.69-21.5L105.69-21.5Q105.09-22.7 103.97-23.33 102.84-23.95 101.29-23.95L101.29-23.95Q98.39-23.95 96.29-22.1L96.29-22.1Q94.24-20.25 94.04-16.35L94.04-16.35 94.04-3 97.39-2.05 97.39 0 85.34 0 85.34-2.05ZM121.59-24.5L116.74-24.5 116.74-26.3 121.59-27 122.24-33.3 126.44-33.9 126.44-27 132.84-27 132.84-24.5 126.44-24.5 126.44-6.65Q126.44-4.95 126.49-4.33 126.54-3.7 126.69-3.3L126.69-3.3Q126.84-2.95 127.24-2.83 127.64-2.7 128.54-2.7L128.54-2.7 132.04-2.7 132.04-1.25Q129.64-0.35 127.82 0.08 125.99 0.5 124.89 0.5L124.89 0.5Q122.64 0.5 121.99-1.35L121.99-1.35Q121.79-1.95 121.69-2.9 121.59-3.85 121.59-5.7L121.59-5.7 121.59-24.5ZM149.34-12.2L136.79-12.2 136.79-15.55 149.34-15.55 149.34-12.2ZM177.64-13.2L177.64-13.2 160.19-13.2Q160.19-9.55 161.19-7.15L161.19-7.15Q162.19-4.85 164.04-3.85 165.89-2.85 168.04-2.85L168.04-2.85Q170.39-2.85 172.34-3.83 174.29-4.8 175.84-6.5L175.84-6.5 177.44-5.3Q175.69-2.9 173.19-1.2 170.69 0.5 166.74 0.5L166.74 0.5Q163.29 0.5 160.64-0.98 157.99-2.45 156.59-5.3L156.59-5.3Q155.84-6.85 155.49-8.75 155.14-10.65 155.14-12.8L155.14-12.8Q155.14-19.8 158.36-23.65 161.59-27.5 167.14-27.5L167.14-27.5Q172.24-27.5 175.01-24.33 177.79-21.15 177.79-15.55L177.79-15.55Q177.79-15.05 177.76-14.63 177.74-14.2 177.64-13.2ZM166.84-24.8L166.84-24.8Q160.84-24.8 160.24-15.65L160.24-15.65 172.74-15.65 172.74-17.3Q172.74-20.9 171.21-22.85 169.69-24.8 166.84-24.8ZM181.78-2.05L185.63-3 185.63-24 181.78-24.95 181.78-27 188.98-27 190.08-22 190.28-22Q191.78-24.55 194.33-26.03 196.88-27.5 199.78-27.5L199.78-27.5Q203.93-27.5 205.93-24.8L205.93-24.8Q206.93-23.4 207.36-20.88 207.78-18.35 207.78-14.05L207.78-14.05 207.78-3 211.63-2.05 211.63 0 199.58 0 199.58-2.05 202.93-3 202.93-14.15Q202.93-17.4 202.76-19 202.58-20.6 202.13-21.5L202.13-21.5Q201.53-22.7 200.41-23.33 199.28-23.95 197.73-23.95L197.73-23.95Q194.83-23.95 192.73-22.1L192.73-22.1Q190.68-20.25 190.48-16.35L190.48-16.35 190.48-3 193.83-2.05 193.83 0 181.78 0 181.78-2.05ZM215.03-13.25L215.03-13.25Q215.03-16.5 215.88-19.45 216.73-22.4 218.43-24.25L218.43-24.25Q219.88-25.85 221.88-26.68 223.88-27.5 226.48-27.5L226.48-27.5Q228.68-27.5 230.51-26.65 232.33-25.8 233.78-23.6L233.78-23.6 233.78-36 229.93-36.95 229.93-39 238.63-39 238.63-3 242.48-2.05 242.48 0 234.73 0.5 234.33-3.6Q232.78-1.3 230.83-0.4 228.88 0.5 226.48 0.5L226.48 0.5Q223.93 0.5 221.88-0.25 219.83-1 218.48-2.65L218.48-2.65Q216.88-4.6 215.96-7.33 215.03-10.05 215.03-13.25ZM233.78-13.3L233.78-13.3Q233.78-16.35 233.33-18.6 232.88-20.85 232.03-22.25L232.03-22.25Q231.23-23.55 230.08-24.23 228.93-24.9 227.03-24.9L227.03-24.9Q225.33-24.9 224.06-24.3 222.78-23.7 221.98-22.55L221.98-22.55Q221.08-21.3 220.68-18.98 220.28-16.65 220.28-13.65L220.28-13.65Q220.28-10.65 220.73-8.43 221.18-6.2 222.03-4.75L222.03-4.75Q222.88-3.5 224.06-2.8 225.23-2.1 227.08-2.1L227.08-2.1Q228.83-2.1 230.11-2.68 231.38-3.25 232.03-4.4L232.03-4.4Q232.88-5.8 233.33-8.03 233.78-10.25 233.78-13.3ZM258.73-13.25L258.73-13.25Q258.73-16.5 259.57-19.45 260.43-22.4 262.13-24.25L262.13-24.25Q263.57-25.85 265.57-26.68 267.57-27.5 270.18-27.5L270.18-27.5Q272.38-27.5 274.2-26.65 276.03-25.8 277.48-23.6L277.48-23.6 277.48-36 273.63-36.95 273.63-39 282.32-39 282.32-3 286.18-2.05 286.18 0 278.43 0.5 278.03-3.6Q276.48-1.3 274.53-0.4 272.57 0.5 270.18 0.5L270.18 0.5Q267.63 0.5 265.57-0.25 263.53-1 262.18-2.65L262.18-2.65Q260.57-4.6 259.65-7.33 258.73-10.05 258.73-13.25ZM277.48-13.3L277.48-13.3Q277.48-16.35 277.03-18.6 276.57-20.85 275.73-22.25L275.73-22.25Q274.93-23.55 273.78-24.23 272.63-24.9 270.73-24.9L270.73-24.9Q269.03-24.9 267.75-24.3 266.48-23.7 265.68-22.55L265.68-22.55Q264.78-21.3 264.38-18.98 263.98-16.65 263.98-13.65L263.98-13.65Q263.98-10.65 264.43-8.43 264.88-6.2 265.73-4.75L265.73-4.75Q266.57-3.5 267.75-2.8 268.93-2.1 270.78-2.1L270.78-2.1Q272.53-2.1 273.8-2.68 275.07-3.25 275.73-4.4L275.73-4.4Q276.57-5.8 277.03-8.03 277.48-10.25 277.48-13.3ZM312.27-13.2L312.27-13.2 294.82-13.2Q294.82-9.55 295.82-7.15L295.82-7.15Q296.82-4.85 298.67-3.85 300.52-2.85 302.67-2.85L302.67-2.85Q305.02-2.85 306.97-3.83 308.92-4.8 310.47-6.5L310.47-6.5 312.07-5.3Q310.32-2.9 307.82-1.2 305.32 0.5 301.37 0.5L301.37 0.5Q297.92 0.5 295.27-0.98 292.62-2.45 291.22-5.3L291.22-5.3Q290.47-6.85 290.12-8.75 289.77-10.65 289.77-12.8L289.77-12.8Q289.77-19.8 293-23.65 296.22-27.5 301.77-27.5L301.77-27.5Q306.87-27.5 309.65-24.33 312.42-21.15 312.42-15.55L312.42-15.55Q312.42-15.05 312.4-14.63 312.37-14.2 312.27-13.2ZM301.47-24.8L301.47-24.8Q295.47-24.8 294.87-15.65L294.87-15.65 307.37-15.65 307.37-17.3Q307.37-20.9 305.85-22.85 304.32-24.8 301.47-24.8ZM340.27-24L331.42 0.5 326.27 0.5 317.37-24 314.57-24.95 314.57-27 325.77-27 325.77-24.95 322.47-24 329.52-3.05 329.72-3.05 336.77-24 333.67-24.95 333.67-27 343.17-27 343.17-24.95 340.27-24ZM367.62-13.2L367.62-13.2 350.17-13.2Q350.17-9.55 351.17-7.15L351.17-7.15Q352.17-4.85 354.02-3.85 355.87-2.85 358.02-2.85L358.02-2.85Q360.37-2.85 362.32-3.83 364.27-4.8 365.82-6.5L365.82-6.5 367.42-5.3Q365.67-2.9 363.17-1.2 360.67 0.5 356.72 0.5L356.72 0.5Q353.27 0.5 350.62-0.98 347.97-2.45 346.57-5.3L346.57-5.3Q345.82-6.85 345.47-8.75 345.12-10.65 345.12-12.8L345.12-12.8Q345.12-19.8 348.34-23.65 351.57-27.5 357.12-27.5L357.12-27.5Q362.22-27.5 364.99-24.33 367.77-21.15 367.77-15.55L367.77-15.55Q367.77-15.05 367.74-14.63 367.72-14.2 367.62-13.2ZM356.82-24.8L356.82-24.8Q350.82-24.8 350.22-15.65L350.22-15.65 362.72-15.65 362.72-17.3Q362.72-20.9 361.19-22.85 359.67-24.8 356.82-24.8ZM371.36-2.05L375.21-3 375.21-36 371.36-36.95 371.36-39 380.06-39 380.06-3 383.91-2.05 383.91 0 371.36 0 371.36-2.05ZM412.16-13.75L412.16-13.75Q412.16-10.5 411.19-7.58 410.21-4.65 408.46-2.75L408.46-2.75Q406.96-1.1 404.76-0.3 402.56 0.5 399.76 0.5L399.76 0.5Q397.01 0.5 394.86-0.28 392.71-1.05 391.21-2.65L391.21-2.65Q389.51-4.5 388.59-7.23 387.66-9.95 387.66-13.15L387.66-13.15Q387.66-16.4 388.61-19.38 389.56-22.35 391.36-24.25L391.36-24.25Q392.96-25.95 395.09-26.73 397.21-27.5 399.96-27.5L399.96-27.5Q402.71-27.5 404.91-26.73 407.11-25.95 408.61-24.35L408.61-24.35Q410.36-22.5 411.26-19.73 412.16-16.95 412.16-13.75ZM393.01-13.7L393.01-13.7Q393.01-10.65 393.49-8.43 393.96-6.2 394.81-4.75L394.81-4.75Q395.66-3.5 396.84-2.8 398.01-2.1 399.91-2.1L399.91-2.1Q403.36-2.1 405.06-4.45L405.06-4.45Q405.96-5.75 406.39-8.05 406.81-10.35 406.81-13.35L406.81-13.35Q406.81-16.35 406.34-18.6 405.86-20.85 405.01-22.25L405.01-22.25Q404.21-23.55 402.99-24.23 401.76-24.9 399.86-24.9L399.86-24.9Q396.36-24.9 394.81-22.6L394.81-22.6Q393.01-19.8 393.01-13.7ZM424.41-3.7L424.41 6 429.26 6.95 429.26 9 415.71 9 415.71 6.95 419.56 6 419.56-24 415.71-24.95 415.71-27 422.91-27 423.66-23.15Q425.26-25.65 427.28-26.58 429.31-27.5 431.86-27.5L431.86-27.5Q434.41-27.5 436.48-26.75 438.56-26 439.86-24.35L439.86-24.35Q441.36-22.45 442.23-19.78 443.11-17.1 443.11-14L443.11-14Q443.11-10.8 442.13-7.98 441.16-5.15 439.51-3.25L439.51-3.25Q436.71 0 431.46 0L431.46 0Q429.31 0 427.58-0.83 425.86-1.65 424.41-3.7L424.41-3.7ZM424.36-13.95L424.36-13.95Q424.36-11 424.81-8.8 425.26-6.6 426.11-5.25L426.11-5.25Q426.91-4 428.08-3.3 429.26-2.6 431.11-2.6L431.11-2.6Q432.81-2.6 434.08-3.23 435.36-3.85 436.16-4.95L436.16-4.95Q437.06-6.2 437.46-8.45 437.86-10.7 437.86-13.6L437.86-13.6Q437.86-16.55 437.41-18.7 436.96-20.85 436.11-22.25L436.11-22.25Q435.31-23.55 434.13-24.23 432.96-24.9 431.06-24.9L431.06-24.9Q429.36-24.9 428.08-24.33 426.81-23.75 426.11-22.6L426.11-22.6Q425.31-21.25 424.83-19.07 424.36-16.9 424.36-13.95ZM470.26-13.2L470.26-13.2 452.81-13.2Q452.81-9.55 453.81-7.15L453.81-7.15Q454.81-4.85 456.66-3.85 458.51-2.85 460.66-2.85L460.66-2.85Q463.01-2.85 464.96-3.83 466.91-4.8 468.46-6.5L468.46-6.5 470.06-5.3Q468.31-2.9 465.81-1.2 463.31 0.5 459.36 0.5L459.36 0.5Q455.91 0.5 453.26-0.98 450.61-2.45 449.21-5.3L449.21-5.3Q448.46-6.85 448.11-8.75 447.76-10.65 447.76-12.8L447.76-12.8Q447.76-19.8 450.98-23.65 454.21-27.5 459.76-27.5L459.76-27.5Q464.86-27.5 467.63-24.33 470.41-21.15 470.41-15.55L470.41-15.55Q470.41-15.05 470.38-14.63 470.36-14.2 470.26-13.2ZM459.46-24.8L459.46-24.8Q453.46-24.8 452.86-15.65L452.86-15.65 465.36-15.65 465.36-17.3Q465.36-20.9 463.83-22.85 462.31-24.8 459.46-24.8ZM489.45-24.1L489.45-24.1Q489.25-24.25 488.98-24.33 488.7-24.4 488.45-24.4L488.45-24.4Q487.85-24.4 487.15-23.85 486.45-23.3 485.8-22.38 485.15-21.45 484.6-20.25L484.6-20.25Q483.9-18.55 483.5-16.53 483.1-14.5 483.1-12.35L483.1-12.35 483.1-3 488.5-2.05 488.5 0 474.4 0 474.4-2.05 478.25-3 478.25-24 474.4-24.95 474.4-27 481.6-27 482.7-20.4 482.9-20.4Q484.05-23.8 486-25.65 487.95-27.5 490.3-27.5L490.3-27.5Q492.25-27.5 493.55-26.28 494.85-25.05 494.85-23L494.85-23Q494.85-21.5 494.08-20.63 493.3-19.75 492-19.75L492-19.75Q490.7-19.75 489.95-20.58 489.2-21.4 489.2-22.75L489.2-22.75Q489.2-23.05 489.25-23.33 489.3-23.6 489.45-24.1Z" opacity="1" transform="matrix(1,0,0,1,0,0)" fill="#febb12" class="slogan-text-1" data-fill-palette-color="secondary" id="text-1"></path></svg></g></svg></g></svg></g></svg></g></svg></g><defs></defs></svg><rect width="256.42856896062" height="247.2" fill="none" stroke="none" visibility="hidden"></rect></g></svg></g></svg>