<!-- Generated by IcoMoon.io -->
<svg version="1.1" xmlns="http://www.w3.org/2000/svg" width="32" height="32" viewBox="0 0 32 32">
<title>icon_seo</title>
<path fill="#febb12" d="M14.739 5.867c-5.042 2.909-9.455 5.673-9.745 6.109-0.436 0.582-0.63 3.103-0.63 8.388v7.564l1.406 0.824c1.794 1.067 2.57 1.018 4.509-0.145 1.988-1.212 2.327-1.212 2.327 0 0 1.891 3.733 3.248 6.788 2.424 3.394-0.921 4.509-4.315 2.182-6.497-0.679-0.63-1.212-1.261-1.212-1.406s1.503-1.164 3.345-2.23c1.842-1.067 3.442-2.327 3.636-2.764 0.145-0.388 0.291-4.121 0.291-8.242v-7.467l-3.685-1.842-9.212 5.285zM25.406 1.891c0.145 0.242-3.248 2.424-7.612 4.897-4.315 2.473-8.582 5.042-9.455 5.673l-1.551 1.164v7.515c0 7.37 0 7.467-0.97 6.982-0.921-0.485-0.97-1.018-0.97-7.661 0-5.042 0.194-7.418 0.63-8.049 0.776-1.067 17.745-10.909 18.861-10.958 0.436 0 0.921 0.194 1.067 0.436zM27.151 10.085c0 4.994-0.194 7.418-0.582 8-0.679 0.824-17.988 11.006-18.812 11.006-0.291 0-0.485-2.764-0.485-7.418 0-6.739 0.097-7.564 0.921-8.291 1.503-1.358 17.164-10.376 18.133-10.424 0.727-0.049 0.824 0.582 0.824 7.127zM19.394 24.921c0 1.261-0.242 1.745-0.97 1.988-1.212 0.388-2.909-0.145-2.909-0.873 0-0.436 2.23-2.036 3.782-2.715 0.049-0.049 0.097 0.679 0.097 1.6zM21.721 26.085c0.242 1.648-1.842 2.667-4.8 2.424-2.715-0.291-3.879-1.018-2.958-1.939 0.436-0.436 0.776-0.388 1.455 0.242 1.697 1.552 4.945 0.582 4.945-1.455 0-1.067 1.212-0.485 1.358 0.727zM17.309 28.994c1.358 0.097 2.958-0.049 3.491-0.339 1.358-0.776 1.309 0.145-0.049 1.115-1.406 0.97-5.188 0.97-6.594 0-1.261-0.873-1.455-1.939-0.194-1.358 0.436 0.194 1.939 0.436 3.345 0.582z"></path>
<path fill="#febb12" d="M16.727 9.164l-8.242 4.8-0.145 6.594c-0.097 5.867-0.049 6.594 0.679 6.594 0.824 0 14.739-7.806 16.339-9.164 0.727-0.63 0.824-1.455 0.727-6.982-0.097-3.685-0.339-6.4-0.63-6.449-0.242-0.097-4.17 1.988-8.727 4.606zM25.697 11.055c0 4.897-0.145 5.867-0.824 6.497-0.97 0.824-13.964 8.388-15.321 8.921-0.776 0.291-0.824-0.145-0.727-5.915l0.145-6.206 7.758-4.509c4.267-2.424 8.049-4.461 8.388-4.461 0.436-0.048 0.582 1.406 0.582 5.673z"></path>
<path fill="#febb12" d="M21.285 10.279c-0.824 1.794-1.018 2.521-0.533 2.715 0.339 0.097 0.582 1.067 0.582 2.57 0 2.57 0.194 2.764 1.842 1.6 0.873-0.63 1.067-1.212 1.067-3.588 0-1.552 0.242-2.909 0.485-3.006 0.291-0.097-0.097-0.776-0.873-1.503l-1.358-1.309-1.212 2.521zM23.709 9.406c0.485 0.533 0.339 0.824-0.533 1.455-1.552 1.115-1.842 0.97-1.212-0.679s0.921-1.745 1.745-0.776zM23.079 16.291c-0.582 1.503-1.261 0.533-1.261-1.697 0-3.006 1.115-3.733 1.358-0.873 0.097 1.018 0.049 2.23-0.097 2.57z"></path>
<path fill="#febb12" d="M18.57 14.642c-0.97 0.436-1.115 0.921-1.115 3.151v2.618l1.455-0.776c1.309-0.679 1.455-0.97 1.455-3.151 0-2.57-0.097-2.667-1.794-1.842zM18.812 18.958c-0.485 0.291-0.679-0.049-0.776-1.358-0.097-1.067 0.097-1.891 0.485-2.133 0.485-0.291 0.679 0.049 0.776 1.358 0.097 1.067-0.097 1.891-0.485 2.133z"></path>
<path fill="#febb12" d="M14.933 18.715c-1.018 0.533-1.358 1.067-1.358 2.133 0 1.6 0.679 1.842 2.085 0.776 0.582-0.485 0.824-1.164 0.727-2.133-0.145-1.455-0.194-1.455-1.455-0.776zM15.806 20.606c-0.339 0.921-1.745 0.921-1.745 0 0-0.824 1.6-1.842 1.842-1.164 0.097 0.242 0.049 0.776-0.097 1.164z"></path>
</svg>
