<?xml version="1.0" standalone="no"?>
<!DOCTYPE svg PUBLIC "-//W3C//DTD SVG 20010904//EN"
 "http://www.w3.org/TR/2001/REC-SVG-20010904/DTD/svg10.dtd">
<svg version="1.0" xmlns="http://www.w3.org/2000/svg"
 width="64.000000pt" height="64.000000pt" viewBox="0 0 64.000000 64.000000"
 preserveAspectRatio="xMidYMid meet">

<g transform="translate(0.000000,64.000000) scale(0.100000,-0.100000)"
fill="#000000" stroke="none">
<path d="M284 628 c-12 -5 -27 -21 -33 -34 -15 -33 -15 -400 0 -410 6 -3 30 8
54 25 42 30 46 31 154 31 120 0 153 9 170 47 6 14 11 82 11 162 0 136 0 139
-26 165 -26 26 -28 26 -168 25 -77 0 -151 -5 -162 -11z m304 -40 c17 -17 17
-279 0 -296 -8 -8 -52 -12 -131 -12 -104 0 -123 -3 -148 -21 l-29 -20 0 168
c0 118 4 173 12 181 17 17 279 17 296 0z"/>
<path d="M394 525 c-26 -26 -29 -55 -7 -62 7 -3 17 7 23 22 7 20 16 26 33 23
33 -5 35 -41 2 -56 -26 -12 -34 -45 -14 -58 15 -9 79 61 79 86 0 27 -43 70
-70 70 -11 0 -32 -11 -46 -25z"/>
<path d="M424 359 c-10 -17 13 -36 27 -22 12 12 4 33 -11 33 -5 0 -12 -5 -16
-11z"/>
<path d="M85 331 c-56 -24 -81 -99 -47 -141 l21 -25 -27 -28 c-21 -22 -26 -37
-27 -80 l0 -52 115 0 c115 0 115 0 118 25 5 34 -14 94 -38 115 -19 17 -19 19
-3 37 27 30 23 93 -7 123 -28 27 -75 39 -105 26z m75 -51 c24 -24 26 -57 3
-82 -34 -38 -103 -11 -103 40 0 56 61 81 100 42z m14 -166 c14 -15 26 -37 26
-50 0 -23 -3 -24 -80 -24 -79 0 -80 0 -80 25 0 14 11 37 25 50 32 33 75 33
109 -1z"/>
</g>
</svg>
