<?xml version="1.0" standalone="no"?>
<!DOCTYPE svg PUBLIC "-//W3C//DTD SVG 20010904//EN"
 "http://www.w3.org/TR/2001/REC-SVG-20010904/DTD/svg10.dtd">
<svg version="1.0" xmlns="http://www.w3.org/2000/svg"
 width="64.000000pt" height="64.000000pt" viewBox="0 0 64.000000 64.000000"
 preserveAspectRatio="xMidYMid meet">

<g transform="translate(0.000000,64.000000) scale(0.100000,-0.100000)"
fill="#000000" stroke="none">
<path d="M207 582 c-10 -10 -17 -26 -17 -35 0 -14 -12 -17 -79 -17 -44 0 -86
-3 -95 -6 -14 -5 -16 -35 -16 -229 0 -202 2 -223 18 -238 16 -15 52 -17 304
-17 263 0 286 1 301 18 15 16 17 48 17 239 0 192 -2 222 -16 227 -9 3 -51 6
-95 6 -70 0 -79 2 -79 18 0 40 -31 52 -132 52 -79 0 -98 -3 -111 -18z m203
-37 c0 -12 -17 -15 -90 -15 -73 0 -90 3 -90 15 0 12 17 15 90 15 73 0 90 -3
90 -15z m180 -63 c0 -4 -13 -46 -28 -92 l-29 -85 -60 -3 c-54 -3 -61 -1 -66
18 -5 18 -13 20 -87 20 -74 0 -82 -2 -87 -20 -5 -19 -12 -21 -66 -18 l-60 3
-29 85 c-15 46 -28 88 -28 92 0 4 122 8 270 8 149 0 270 -4 270 -8z m-499
-204 c15 -13 39 -18 80 -18 46 0 59 -3 59 -15 0 -12 17 -15 90 -15 73 0 90 3
90 15 0 12 13 15 59 15 69 0 94 16 115 75 14 38 15 33 15 -107 l1 -148 -280 0
-280 0 1 148 c0 140 1 145 15 107 8 -22 24 -48 35 -57z m287 5 c-3 -15 -14
-18 -58 -18 -44 0 -55 3 -58 18 -3 15 5 17 58 17 53 0 61 -2 58 -17z"/>
</g>
</svg>
